<svg width="350" height="62" viewBox="0 0 350 62" fill="none" xmlns="http://www.w3.org/2000/svg">
<path fill-rule="evenodd" clip-rule="evenodd" d="M279 0H350V62H279V0ZM279.111 0.110714H287.764V8.74643H279.111V0.110714ZM287.986 0.110714H296.639V8.74643H287.986V0.110714ZM305.514 0.110714H296.861V8.74643H305.514V0.110714ZM305.736 0.110714H314.389V8.74643H305.736V0.110714ZM323.264 0.110714H314.611V8.74643H323.264V0.110714ZM323.486 0.110714H332.139V8.74643H323.486V0.110714ZM341.014 0.110714H332.361V8.74643H341.014V0.110714ZM341.236 0.110714H349.889V8.74643H341.236V0.110714ZM287.764 8.96786H279.111V17.6036H287.764V8.96786ZM287.986 8.96786H296.639V17.6036H287.986V8.96786ZM305.514 8.96786H296.861V17.6036H305.514V8.96786ZM305.736 8.96786H314.389V17.6036H305.736V8.96786ZM323.264 8.96786H314.611V17.6036H323.264V8.96786ZM323.486 8.96786H332.139V17.6036H323.486V8.96786ZM341.014 8.96786H332.361V17.6036H341.014V8.96786ZM341.236 8.96786H349.889V17.6036H341.236V8.96786ZM287.764 17.825H279.111V26.4607H287.764V17.825ZM287.986 17.825H296.639V26.4607H287.986V17.825ZM305.514 17.825H296.861V26.4607H305.514V17.825ZM305.736 17.825H314.389V26.4607H305.736V17.825ZM323.264 17.825H314.611V26.4607H323.264V17.825ZM323.486 17.825H332.139V26.4607H323.486V17.825ZM341.014 17.825H332.361V26.4607H341.014V17.825ZM341.236 17.825H349.889V26.4607H341.236V17.825ZM287.764 26.6821H279.111V35.3179H287.764V26.6821ZM287.986 26.6821H296.639V35.3179H287.986V26.6821ZM305.514 26.6821H296.861V35.3179H305.514V26.6821ZM305.736 26.6821H314.389V35.3179H305.736V26.6821ZM323.264 26.6821H314.611V35.3179H323.264V26.6821ZM323.486 26.6821H332.139V35.3179H323.486V26.6821ZM341.014 26.6821H332.361V35.3179H341.014V26.6821ZM341.236 26.6821H349.889V35.3179H341.236V26.6821ZM287.764 35.5393H279.111V44.175H287.764V35.5393ZM287.986 35.5393H296.639V44.175H287.986V35.5393ZM305.514 35.5393H296.861V44.175H305.514V35.5393ZM305.736 35.5393H314.389V44.175H305.736V35.5393ZM323.264 35.5393H314.611V44.175H323.264V35.5393ZM323.486 35.5393H332.139V44.175H323.486V35.5393ZM341.014 35.5393H332.361V44.175H341.014V35.5393ZM341.236 35.5393H349.889V44.175H341.236V35.5393ZM287.764 44.3964H279.111V53.0321H287.764V44.3964ZM287.986 44.3964H296.639V53.0321H287.986V44.3964ZM305.514 44.3964H296.861V53.0321H305.514V44.3964ZM305.736 44.3964H314.389V53.0321H305.736V44.3964ZM323.264 44.3964H314.611V53.0321H323.264V44.3964ZM323.486 44.3964H332.139V53.0321H323.486V44.3964ZM341.014 44.3964H332.361V53.0321H341.014V44.3964ZM341.236 44.3964H349.889V53.0321H341.236V44.3964ZM287.764 53.2536H279.111V61.8893H287.764V53.2536ZM287.986 53.2536H296.639V61.8893H287.986V53.2536ZM305.514 53.2536H296.861V61.8893H305.514V53.2536ZM305.736 53.2536H314.389V61.8893H305.736V53.2536ZM323.264 53.2536H314.611V61.8893H323.264V53.2536ZM323.486 53.2536H332.139V61.8893H323.486V53.2536ZM341.014 53.2536H332.361V61.8893H341.014V53.2536ZM341.236 53.2536H349.889V61.8893H341.236V53.2536Z" fill="white" fill-opacity="0.2"/>
<path fill-rule="evenodd" clip-rule="evenodd" d="M208 0H279V62H208V0ZM208.111 0.110714H216.764V8.74643H208.111V0.110714ZM216.986 0.110714H225.639V8.74643H216.986V0.110714ZM234.514 0.110714H225.861V8.74643H234.514V0.110714ZM234.736 0.110714H243.389V8.74643H234.736V0.110714ZM252.264 0.110714H243.611V8.74643H252.264V0.110714ZM252.486 0.110714H261.139V8.74643H252.486V0.110714ZM270.014 0.110714H261.361V8.74643H270.014V0.110714ZM270.236 0.110714H278.889V8.74643H270.236V0.110714ZM216.764 8.96786H208.111V17.6036H216.764V8.96786ZM216.986 8.96786H225.639V17.6036H216.986V8.96786ZM234.514 8.96786H225.861V17.6036H234.514V8.96786ZM234.736 8.96786H243.389V17.6036H234.736V8.96786ZM252.264 8.96786H243.611V17.6036H252.264V8.96786ZM252.486 8.96786H261.139V17.6036H252.486V8.96786ZM270.014 8.96786H261.361V17.6036H270.014V8.96786ZM270.236 8.96786H278.889V17.6036H270.236V8.96786ZM216.764 17.825H208.111V26.4607H216.764V17.825ZM216.986 17.825H225.639V26.4607H216.986V17.825ZM234.514 17.825H225.861V26.4607H234.514V17.825ZM234.736 17.825H243.389V26.4607H234.736V17.825ZM252.264 17.825H243.611V26.4607H252.264V17.825ZM252.486 17.825H261.139V26.4607H252.486V17.825ZM270.014 17.825H261.361V26.4607H270.014V17.825ZM270.236 17.825H278.889V26.4607H270.236V17.825ZM216.764 26.6821H208.111V35.3179H216.764V26.6821ZM216.986 26.6821H225.639V35.3179H216.986V26.6821ZM234.514 26.6821H225.861V35.3179H234.514V26.6821ZM234.736 26.6821H243.389V35.3179H234.736V26.6821ZM252.264 26.6821H243.611V35.3179H252.264V26.6821ZM252.486 26.6821H261.139V35.3179H252.486V26.6821ZM270.014 26.6821H261.361V35.3179H270.014V26.6821ZM270.236 26.6821H278.889V35.3179H270.236V26.6821ZM216.764 35.5393H208.111V44.175H216.764V35.5393ZM216.986 35.5393H225.639V44.175H216.986V35.5393ZM234.514 35.5393H225.861V44.175H234.514V35.5393ZM234.736 35.5393H243.389V44.175H234.736V35.5393ZM252.264 35.5393H243.611V44.175H252.264V35.5393ZM252.486 35.5393H261.139V44.175H252.486V35.5393ZM270.014 35.5393H261.361V44.175H270.014V35.5393ZM270.236 35.5393H278.889V44.175H270.236V35.5393ZM216.764 44.3964H208.111V53.0321H216.764V44.3964ZM216.986 44.3964H225.639V53.0321H216.986V44.3964ZM234.514 44.3964H225.861V53.0321H234.514V44.3964ZM234.736 44.3964H243.389V53.0321H234.736V44.3964ZM252.264 44.3964H243.611V53.0321H252.264V44.3964ZM252.486 44.3964H261.139V53.0321H252.486V44.3964ZM270.014 44.3964H261.361V53.0321H270.014V44.3964ZM270.236 44.3964H278.889V53.0321H270.236V44.3964ZM216.764 53.2536H208.111V61.8893H216.764V53.2536ZM216.986 53.2536H225.639V61.8893H216.986V53.2536ZM234.514 53.2536H225.861V61.8893H234.514V53.2536ZM234.736 53.2536H243.389V61.8893H234.736V53.2536ZM252.264 53.2536H243.611V61.8893H252.264V53.2536ZM252.486 53.2536H261.139V61.8893H252.486V53.2536ZM270.014 53.2536H261.361V61.8893H270.014V53.2536ZM270.236 53.2536H278.889V61.8893H270.236V53.2536Z" fill="white" fill-opacity="0.2"/>
<path fill-rule="evenodd" clip-rule="evenodd" d="M137 0H208V62H137V0ZM137.111 0.110714H145.764V8.74643H137.111V0.110714ZM145.986 0.110714H154.639V8.74643H145.986V0.110714ZM163.514 0.110714H154.861V8.74643H163.514V0.110714ZM163.736 0.110714H172.389V8.74643H163.736V0.110714ZM181.264 0.110714H172.611V8.74643H181.264V0.110714ZM181.486 0.110714H190.139V8.74643H181.486V0.110714ZM199.014 0.110714H190.361V8.74643H199.014V0.110714ZM199.236 0.110714H207.889V8.74643H199.236V0.110714ZM145.764 8.96786H137.111V17.6036H145.764V8.96786ZM145.986 8.96786H154.639V17.6036H145.986V8.96786ZM163.514 8.96786H154.861V17.6036H163.514V8.96786ZM163.736 8.96786H172.389V17.6036H163.736V8.96786ZM181.264 8.96786H172.611V17.6036H181.264V8.96786ZM181.486 8.96786H190.139V17.6036H181.486V8.96786ZM199.014 8.96786H190.361V17.6036H199.014V8.96786ZM199.236 8.96786H207.889V17.6036H199.236V8.96786ZM145.764 17.825H137.111V26.4607H145.764V17.825ZM145.986 17.825H154.639V26.4607H145.986V17.825ZM163.514 17.825H154.861V26.4607H163.514V17.825ZM163.736 17.825H172.389V26.4607H163.736V17.825ZM181.264 17.825H172.611V26.4607H181.264V17.825ZM181.486 17.825H190.139V26.4607H181.486V17.825ZM199.014 17.825H190.361V26.4607H199.014V17.825ZM199.236 17.825H207.889V26.4607H199.236V17.825ZM145.764 26.6821H137.111V35.3179H145.764V26.6821ZM145.986 26.6821H154.639V35.3179H145.986V26.6821ZM163.514 26.6821H154.861V35.3179H163.514V26.6821ZM163.736 26.6821H172.389V35.3179H163.736V26.6821ZM181.264 26.6821H172.611V35.3179H181.264V26.6821ZM181.486 26.6821H190.139V35.3179H181.486V26.6821ZM199.014 26.6821H190.361V35.3179H199.014V26.6821ZM199.236 26.6821H207.889V35.3179H199.236V26.6821ZM145.764 35.5393H137.111V44.175H145.764V35.5393ZM145.986 35.5393H154.639V44.175H145.986V35.5393ZM163.514 35.5393H154.861V44.175H163.514V35.5393ZM163.736 35.5393H172.389V44.175H163.736V35.5393ZM181.264 35.5393H172.611V44.175H181.264V35.5393ZM181.486 35.5393H190.139V44.175H181.486V35.5393ZM199.014 35.5393H190.361V44.175H199.014V35.5393ZM199.236 35.5393H207.889V44.175H199.236V35.5393ZM145.764 44.3964H137.111V53.0321H145.764V44.3964ZM145.986 44.3964H154.639V53.0321H145.986V44.3964ZM163.514 44.3964H154.861V53.0321H163.514V44.3964ZM163.736 44.3964H172.389V53.0321H163.736V44.3964ZM181.264 44.3964H172.611V53.0321H181.264V44.3964ZM181.486 44.3964H190.139V53.0321H181.486V44.3964ZM199.014 44.3964H190.361V53.0321H199.014V44.3964ZM199.236 44.3964H207.889V53.0321H199.236V44.3964ZM145.764 53.2536H137.111V61.8893H145.764V53.2536ZM145.986 53.2536H154.639V61.8893H145.986V53.2536ZM163.514 53.2536H154.861V61.8893H163.514V53.2536ZM163.736 53.2536H172.389V61.8893H163.736V53.2536ZM181.264 53.2536H172.611V61.8893H181.264V53.2536ZM181.486 53.2536H190.139V61.8893H181.486V53.2536ZM199.014 53.2536H190.361V61.8893H199.014V53.2536ZM199.236 53.2536H207.889V61.8893H199.236V53.2536Z" fill="white" fill-opacity="0.2"/>
<path fill-rule="evenodd" clip-rule="evenodd" d="M66 0H137V62H66V0ZM66.1109 0.110714H74.7641V8.74643H66.1109V0.110714ZM74.9859 0.110714H83.6391V8.74643H74.9859V0.110714ZM92.5141 0.110714H83.8609V8.74643H92.5141V0.110714ZM92.7359 0.110714H101.389V8.74643H92.7359V0.110714ZM110.264 0.110714H101.611V8.74643H110.264V0.110714ZM110.486 0.110714H119.139V8.74643H110.486V0.110714ZM128.014 0.110714H119.361V8.74643H128.014V0.110714ZM128.236 0.110714H136.889V8.74643H128.236V0.110714ZM74.7641 8.96786H66.1109V17.6036H74.7641V8.96786ZM74.9859 8.96786H83.6391V17.6036H74.9859V8.96786ZM92.5141 8.96786H83.8609V17.6036H92.5141V8.96786ZM92.7359 8.96786H101.389V17.6036H92.7359V8.96786ZM110.264 8.96786H101.611V17.6036H110.264V8.96786ZM110.486 8.96786H119.139V17.6036H110.486V8.96786ZM128.014 8.96786H119.361V17.6036H128.014V8.96786ZM128.236 8.96786H136.889V17.6036H128.236V8.96786ZM74.7641 17.825H66.1109V26.4607H74.7641V17.825ZM74.9859 17.825H83.6391V26.4607H74.9859V17.825ZM92.5141 17.825H83.8609V26.4607H92.5141V17.825ZM92.7359 17.825H101.389V26.4607H92.7359V17.825ZM110.264 17.825H101.611V26.4607H110.264V17.825ZM110.486 17.825H119.139V26.4607H110.486V17.825ZM128.014 17.825H119.361V26.4607H128.014V17.825ZM128.236 17.825H136.889V26.4607H128.236V17.825ZM74.7641 26.6821H66.1109V35.3179H74.7641V26.6821ZM74.9859 26.6821H83.6391V35.3179H74.9859V26.6821ZM92.5141 26.6821H83.8609V35.3179H92.5141V26.6821ZM92.7359 26.6821H101.389V35.3179H92.7359V26.6821ZM110.264 26.6821H101.611V35.3179H110.264V26.6821ZM110.486 26.6821H119.139V35.3179H110.486V26.6821ZM128.014 26.6821H119.361V35.3179H128.014V26.6821ZM128.236 26.6821H136.889V35.3179H128.236V26.6821ZM74.7641 35.5393H66.1109V44.175H74.7641V35.5393ZM74.9859 35.5393H83.6391V44.175H74.9859V35.5393ZM92.5141 35.5393H83.8609V44.175H92.5141V35.5393ZM92.7359 35.5393H101.389V44.175H92.7359V35.5393ZM110.264 35.5393H101.611V44.175H110.264V35.5393ZM110.486 35.5393H119.139V44.175H110.486V35.5393ZM128.014 35.5393H119.361V44.175H128.014V35.5393ZM128.236 35.5393H136.889V44.175H128.236V35.5393ZM74.7641 44.3964H66.1109V53.0321H74.7641V44.3964ZM74.9859 44.3964H83.6391V53.0321H74.9859V44.3964ZM92.5141 44.3964H83.8609V53.0321H92.5141V44.3964ZM92.7359 44.3964H101.389V53.0321H92.7359V44.3964ZM110.264 44.3964H101.611V53.0321H110.264V44.3964ZM110.486 44.3964H119.139V53.0321H110.486V44.3964ZM128.014 44.3964H119.361V53.0321H128.014V44.3964ZM128.236 44.3964H136.889V53.0321H128.236V44.3964ZM74.7641 53.2536H66.1109V61.8893H74.7641V53.2536ZM74.9859 53.2536H83.6391V61.8893H74.9859V53.2536ZM92.5141 53.2536H83.8609V61.8893H92.5141V53.2536ZM92.7359 53.2536H101.389V61.8893H92.7359V53.2536ZM110.264 53.2536H101.611V61.8893H110.264V53.2536ZM110.486 53.2536H119.139V61.8893H110.486V53.2536ZM128.014 53.2536H119.361V61.8893H128.014V53.2536ZM128.236 53.2536H136.889V61.8893H128.236V53.2536Z" fill="white" fill-opacity="0.2"/>
<path fill-rule="evenodd" clip-rule="evenodd" d="M-5 0H66V62H-5V0ZM-4.88906 0.110714H3.76406V8.74643H-4.88906V0.110714ZM3.98594 0.110714H12.6391V8.74643H3.98594V0.110714ZM21.5141 0.110714H12.8609V8.74643H21.5141V0.110714ZM21.7359 0.110714H30.3891V8.74643H21.7359V0.110714ZM39.2641 0.110714H30.6109V8.74643H39.2641V0.110714ZM39.4859 0.110714H48.1391V8.74643H39.4859V0.110714ZM57.0141 0.110714H48.3609V8.74643H57.0141V0.110714ZM57.2359 0.110714H65.8891V8.74643H57.2359V0.110714ZM3.76406 8.96786H-4.88906V17.6036H3.76406V8.96786ZM3.98594 8.96786H12.6391V17.6036H3.98594V8.96786ZM21.5141 8.96786H12.8609V17.6036H21.5141V8.96786ZM21.7359 8.96786H30.3891V17.6036H21.7359V8.96786ZM39.2641 8.96786H30.6109V17.6036H39.2641V8.96786ZM39.4859 8.96786H48.1391V17.6036H39.4859V8.96786ZM57.0141 8.96786H48.3609V17.6036H57.0141V8.96786ZM57.2359 8.96786H65.8891V17.6036H57.2359V8.96786ZM3.76406 17.825H-4.88906V26.4607H3.76406V17.825ZM3.98594 17.825H12.6391V26.4607H3.98594V17.825ZM21.5141 17.825H12.8609V26.4607H21.5141V17.825ZM21.7359 17.825H30.3891V26.4607H21.7359V17.825ZM39.2641 17.825H30.6109V26.4607H39.2641V17.825ZM39.4859 17.825H48.1391V26.4607H39.4859V17.825ZM57.0141 17.825H48.3609V26.4607H57.0141V17.825ZM57.2359 17.825H65.8891V26.4607H57.2359V17.825ZM3.76406 26.6821H-4.88906V35.3179H3.76406V26.6821ZM3.98594 26.6821H12.6391V35.3179H3.98594V26.6821ZM21.5141 26.6821H12.8609V35.3179H21.5141V26.6821ZM21.7359 26.6821H30.3891V35.3179H21.7359V26.6821ZM39.2641 26.6821H30.6109V35.3179H39.2641V26.6821ZM39.4859 26.6821H48.1391V35.3179H39.4859V26.6821ZM57.0141 26.6821H48.3609V35.3179H57.0141V26.6821ZM57.2359 26.6821H65.8891V35.3179H57.2359V26.6821ZM3.76406 35.5393H-4.88906V44.175H3.76406V35.5393ZM3.98594 35.5393H12.6391V44.175H3.98594V35.5393ZM21.5141 35.5393H12.8609V44.175H21.5141V35.5393ZM21.7359 35.5393H30.3891V44.175H21.7359V35.5393ZM39.2641 35.5393H30.6109V44.175H39.2641V35.5393ZM39.4859 35.5393H48.1391V44.175H39.4859V35.5393ZM57.0141 35.5393H48.3609V44.175H57.0141V35.5393ZM57.2359 35.5393H65.8891V44.175H57.2359V35.5393ZM3.76406 44.3964H-4.88906V53.0321H3.76406V44.3964ZM3.98594 44.3964H12.6391V53.0321H3.98594V44.3964ZM21.5141 44.3964H12.8609V53.0321H21.5141V44.3964ZM21.7359 44.3964H30.3891V53.0321H21.7359V44.3964ZM39.2641 44.3964H30.6109V53.0321H39.2641V44.3964ZM39.4859 44.3964H48.1391V53.0321H39.4859V44.3964ZM57.0141 44.3964H48.3609V53.0321H57.0141V44.3964ZM57.2359 44.3964H65.8891V53.0321H57.2359V44.3964ZM3.76406 53.2536H-4.88906V61.8893H3.76406V53.2536ZM3.98594 53.2536H12.6391V61.8893H3.98594V53.2536ZM21.5141 53.2536H12.8609V61.8893H21.5141V53.2536ZM21.7359 53.2536H30.3891V61.8893H21.7359V53.2536ZM39.2641 53.2536H30.6109V61.8893H39.2641V53.2536ZM39.4859 53.2536H48.1391V61.8893H39.4859V53.2536ZM57.0141 53.2536H48.3609V61.8893H57.0141V53.2536ZM57.2359 53.2536H65.8891V61.8893H57.2359V53.2536Z" fill="white" fill-opacity="0.2"/>
</svg>
