<svg width="13" height="16" viewBox="0 0 13 16" fill="none" xmlns="http://www.w3.org/2000/svg">
<path d="M11.95 3.28125C12.075 3.4375 12.1687 3.625 12.1687 3.8125V4H8.16875V0H8.35625C8.54375 0 8.73125 0.09375 8.8875 0.21875L11.95 3.28125ZM7.16875 4.25C7.16875 4.6875 7.48125 5 7.91875 5H12.1687V15.25C12.1687 15.6875 11.825 16 11.4187 16H0.91875C0.48125 16 0.16875 15.6875 0.16875 15.25V0.75C0.16875 0.34375 0.48125 0 0.91875 0H7.16875V4.25ZM2.16875 2.25V2.75C2.16875 2.90625 2.2625 3 2.41875 3H4.91875C5.04375 3 5.16875 2.90625 5.16875 2.75V2.25C5.16875 2.125 5.04375 2 4.91875 2H2.41875C2.2625 2 2.16875 2.125 2.16875 2.25ZM2.16875 4.75C2.16875 4.90625 2.2625 5 2.41875 5H4.91875C5.04375 5 5.16875 4.90625 5.16875 4.75V4.25C5.16875 4.125 5.04375 4 4.91875 4H2.41875C2.2625 4 2.16875 4.125 2.16875 4.25V4.75ZM6.66875 13C7.3875 13 7.98125 12.375 7.98125 11.5938C7.98125 10.9688 7.575 10.4062 7.0125 10.25L5.60625 9.8125C5.41875 9.78125 5.325 9.625 5.325 9.4375C5.325 9.1875 5.48125 9 5.7 9H6.575C6.7 9 6.85625 9.0625 6.98125 9.125C7.075 9.1875 7.2 9.1875 7.29375 9.09375L7.6375 8.75C7.7625 8.65625 7.7625 8.46875 7.6375 8.375C7.35625 8.15625 7.0125 8.03125 6.6375 8.03125V7.25C6.6375 7.125 6.54375 7 6.3875 7H5.8875C5.7625 7 5.6375 7.125 5.6375 7.25V8.03125C4.91875 8.03125 4.325 8.65625 4.325 9.4375C4.325 10.0625 4.73125 10.5938 5.29375 10.7812L6.7 11.2188C6.8875 11.25 6.98125 11.4062 6.98125 11.5938C6.98125 11.8438 6.825 12 6.60625 12H5.73125C5.60625 12 5.45 11.9688 5.325 11.9062C5.23125 11.8438 5.10625 11.8438 5.0125 11.9375L4.66875 12.2812C4.54375 12.375 4.54375 12.5625 4.66875 12.6562C4.95 12.875 5.29375 13 5.66875 13V13.75C5.66875 13.9062 5.7625 14 5.91875 14H6.41875C6.54375 14 6.66875 13.9062 6.66875 13.75V13Z" fill="white"/>
</svg>
