<svg width="16" height="16" viewBox="0 0 16 16" fill="none" xmlns="http://www.w3.org/2000/svg">
<rect x="0.333333" y="0.333333" width="15.3333" height="15.3333" rx="2.33333" stroke="black" stroke-width="0.666667"/>
<path d="M1.50943 8.25445V7.22859C1.50943 6.68549 1.78098 6.41394 2.32408 6.41394H2.97781C3.52091 6.41394 3.79246 6.68549 3.79246 7.22859V7.99798H2.20339V8.30474C2.20339 8.41201 2.25703 8.46565 2.36431 8.46565H3.69189V8.84281L3.39017 9.0691H2.32408C1.78098 9.0691 1.50943 8.79755 1.50943 8.25445ZM2.20339 7.46494H3.0985V7.1783C3.0985 7.07102 3.04486 7.01739 2.93758 7.01739H2.36431C2.25703 7.01739 2.20339 7.07102 2.20339 7.1783V7.46494ZM4.05274 5.73506L4.14325 5.59929H4.7819L5.57141 8.41537H5.65187L6.4464 5.59929H7.08002L7.17054 5.73506L6.18491 9.0691H5.03836L4.05274 5.73506ZM7.60929 5.97644V5.29757H8.33343V5.97644H7.60929ZM7.62438 9.0691V6.41394H8.31834V9.0691H7.62438ZM8.9531 8.84281V8.46565H10.1097C10.2237 8.46565 10.2807 8.40196 10.2807 8.27456C10.2807 8.14382 10.2337 8.07006 10.1399 8.0533L9.59677 7.96278C9.16766 7.88903 8.9531 7.64095 8.9531 7.21853C8.9531 6.68214 9.22465 6.41394 9.76775 6.41394H10.5472L10.8489 6.64023V7.01739H9.80798C9.694 7.01739 9.637 7.08108 9.637 7.20848C9.637 7.34258 9.68897 7.41801 9.79289 7.43477L10.331 7.52528C10.7567 7.59569 10.9696 7.84042 10.9696 8.25948C10.9696 8.79923 10.6964 9.0691 10.1499 9.0691H9.25482L8.9531 8.84281ZM12.2711 9.0691C11.728 9.0691 11.4565 8.80258 11.4565 8.26953C11.4565 7.73649 11.728 7.46997 12.2711 7.46997H12.9651V7.1783C12.9651 7.07102 12.9114 7.01739 12.8041 7.01739H11.7381V6.64023L12.0398 6.41394H12.8444C13.3875 6.41394 13.659 6.68549 13.659 7.22859V9.0691H12.2711ZM12.1504 8.30474C12.1504 8.41201 12.2041 8.46565 12.3113 8.46565H12.9651V8.00301H12.3113C12.2041 8.00301 12.1504 8.05665 12.1504 8.16393V8.30474Z" fill="black"/>
</svg>
